# xmcd
#
# Track frame offsets:
#	150
#	9774
#	21940
#	34880
#	48272
#	56797
#	66494
#	84750
#	93370
#	103723
#	112475
#	124895
#	142442
#	152607
#
# Disc length: 2205 seconds
# Revision: 2
# Processed by: cddbd v1.5.2PL0 Copyright (c) Steve Scherf et al.
# Submitted via: dBpowerAMP V12.0
#
DISCID=c3089b0e
DTITLE=Johnny Cash - Johnny Cash, Vol. 2: 5 Classic Albums Plus
DYEAR=1961
DGENRE=Country
TTITLE0=Blues For Two
TTITLE1=Jeri And Nina's Melody
TTITLE2=Forty Shades Of Green
TTITLE3=Tennessee Flat-Top Box
TTITLE4=Tall Man
TTITLE5=Born To Lose
TTITLE6=The Big Battle
TTITLE7=A Little At A Time
TTITLE8=Bonanza
TTITLE9=Pick A Bale O' Cotton
TTITLE10=(There'll Be) Peace In The Valley
TTITLE11=Were You There (When They Crucified My Lord)
TTITLE12=Busted
TTITLE13=Send A Picture Of Mother
EXTD=
EXTT0=
EXTT1=
EXTT2=
EXTT3=
EXTT4=
EXTT5=
EXTT6=
EXTT7=
EXTT8=
EXTT9=
EXTT10=
EXTT11=
EXTT12=
EXTT13=
PLAYORDER=
